<svg xmlns="http://www.w3.org/2000/svg" xmlns:xlink="http://www.w3.org/1999/xlink" viewBox="0,0,256,256" width="50px" height="50px" fill-rule="nonzero"><g fill="#ffffff" fill-rule="nonzero" stroke="none" stroke-width="1" stroke-linecap="butt" stroke-linejoin="miter" stroke-miterlimit="10" stroke-dasharray="" stroke-dashoffset="0" font-family="none" font-weight="none" font-size="none" text-anchor="none" style="mix-blend-mode: normal"><g transform="scale(5.12,5.12)"><path d="M25,2c-12.683,0 -23,10.318 -23,23c0,12.682 10.317,23 23,23c12.683,0 23,-10.318 23,-23c0,-12.682 -10.317,-23 -23,-23zM38.435,24.891c-0.066,0.117 -0.177,0.203 -0.308,0.237c-2.828,0.743 -5.625,1.26 -8.464,1.744c2.132,2.087 4.138,4.107 5.825,6.586c0.075,0.109 0.103,0.245 0.078,0.375c-0.025,0.13 -0.101,0.245 -0.21,0.32l-5.548,3.769c-0.084,0.057 -0.182,0.086 -0.281,0.086c-0.033,0 -0.067,-0.003 -0.101,-0.01c-0.132,-0.027 -0.247,-0.106 -0.32,-0.22c-1.622,-2.527 -2.996,-4.849 -4.392,-7.426c-0.163,0.288 -0.324,0.573 -0.484,0.856c-1.301,2.303 -2.53,4.478 -4.047,6.588c-0.079,0.109 -0.198,0.183 -0.332,0.203c-0.132,0.019 -0.27,-0.015 -0.376,-0.096l-5.343,-4.054c-0.106,-0.081 -0.176,-0.199 -0.193,-0.331c-0.019,-0.131 0.017,-0.265 0.097,-0.37c1.813,-2.385 3.823,-4.311 6.053,-6.319c-2.743,-0.618 -5.454,-1.269 -8.241,-2.157c-0.128,-0.041 -0.234,-0.132 -0.295,-0.253c-0.061,-0.121 -0.069,-0.261 -0.025,-0.388l2.205,-6.334c0.044,-0.125 0.136,-0.228 0.255,-0.286c0.12,-0.058 0.258,-0.065 0.383,-0.022c2.705,0.944 5.109,2.294 7.418,3.655c-0.358,-3.146 -0.584,-5.946 -0.688,-8.533c-0.005,-0.136 0.045,-0.269 0.14,-0.367c0.094,-0.098 0.225,-0.153 0.36,-0.153h6.231c0.273,0 0.496,0.22 0.5,0.493c0.037,2.776 -0.168,5.683 -0.628,8.856c2.725,-1.425 5.327,-2.757 8.285,-3.618c0.128,-0.038 0.264,-0.022 0.381,0.042c0.116,0.063 0.202,0.171 0.239,0.298l1.871,6.441c0.038,0.132 0.022,0.271 -0.045,0.388z"></path></g></g></svg>